# Blender v2.90.1 OBJ File: ''
# www.blender.org
mtllib GBE_Muzzle_SM.mtl
o Cone_Cone.001
v 0.000000 -1.000000 -1.000000
v 1.000000 -1.000000 0.000000
v -0.000000 -1.000000 1.000000
v -1.000000 -1.000000 -0.000000
v 0.000000 1.000000 0.000000
vt 0.999900 0.999900
vt 0.500000 0.500000
vt 0.999900 0.000100
vt 0.000100 0.000100
vt 0.000100 0.999900
vn 0.6667 0.3333 -0.6667
vn 0.6667 0.3333 0.6667
vn -0.6667 0.3333 0.6667
vn -0.6667 0.3333 -0.6667
usemtl None
s off
f 1/1/1 5/2/1 2/3/1
f 2/3/2 5/2/2 3/4/2
f 3/4/3 5/2/3 4/5/3
f 4/5/4 5/2/4 1/1/4
